<svg xmlns="http://www.w3.org/2000/svg" xmlns:xlink="http://www.w3.org/1999/xlink" viewBox="0 0 104 44" style="" class="">
  <defs>
    <linearGradient id="8e57b4cf-db42-4851-bc56-f517ddfa7f62" x1="-354.27" y1="60.47" x2="-321.63" y2="9.15" gradientTransform="matrix(1, 0, -0.36, 1, 400.39, 0)" gradientUnits="userSpaceOnUse">
      <stop offset="0" stop-color="#666"></stop>
      <stop offset="0.25" stop-color="#4d4d4d"></stop>
      <stop offset="0.5" stop-color="#333"></stop>
      <stop offset="1" stop-color="#121212"></stop>
    </linearGradient>
  </defs>
  <title>logoSmb3</title>
  <g id="bcccf552-f943-4c6b-b191-37086c4ac96b" data-name="Layer 1">
    <g>
      <path d="M57.85,19.61a4.9,4.9,0,0,1-1.79,4,7.43,7.43,0,0,1-4.86,1.47A7.65,7.65,0,0,1,46.89,24V20.67A9,9,0,0,0,51.23,22a3.75,3.75,0,0,0,2.12-.51,1.61,1.61,0,0,0,.76-1.41,2.37,2.37,0,0,0-.16-.91,2.59,2.59,0,0,0-.47-.73A12.62,12.62,0,0,0,52,17.17a8.09,8.09,0,0,1-2.35-2.37A5,5,0,0,1,49,12.27a5.25,5.25,0,0,1,.75-2.79,5.07,5.07,0,0,1,2.14-1.91A7.13,7.13,0,0,1,55,6.88a9.81,9.81,0,0,1,4.81,1.2L58.52,10.9A8.2,8.2,0,0,0,55,10a2.46,2.46,0,0,0-1.65.54A1.8,1.8,0,0,0,52.74,12a2.14,2.14,0,0,0,.4,1.29,7.32,7.32,0,0,0,1.79,1.46,7.17,7.17,0,0,1,2.19,2.14A5.07,5.07,0,0,1,57.85,19.61Z" style="fill: #2062af" class="rjQvhlBE_0"></path>
      <path d="M69.69,20.37,76.36,7.13h5.12L77.74,24.84H74.35l1.76-8.38q.64-3,1.27-5.34h-.06L70.42,24.84H67l-.74-13.72h0q-.13,1.07-.46,2.8T63.51,24.84H60.18L63.92,7.13h4.89l.82,13.24Z" style="fill: #2062af" class="rjQvhlBE_1"></path>
      <path d="M90.91,7.13a7.34,7.34,0,0,1,4.19,1,3.36,3.36,0,0,1,1.42,2.95,4.46,4.46,0,0,1-1,3,4.94,4.94,0,0,1-2.86,1.57v.07a3.66,3.66,0,0,1,1.93,1.17,3.27,3.27,0,0,1,.72,2.19,5.19,5.19,0,0,1-1.85,4.28,7.92,7.92,0,0,1-5.12,1.5H82L85.75,7.13ZM86.35,21.74h2.18a3.27,3.27,0,0,0,2.22-.7,2.45,2.45,0,0,0,.8-2q0-2-2.22-2h-2ZM88,14.14h1.8a3.47,3.47,0,0,0,2.2-.59,2,2,0,0,0,.73-1.69q0-1.66-2.06-1.66H88.8Z" style="fill: #2062af" class="rjQvhlBE_2"></path>
    </g>
    <path style="fill: url(#8e57b4cf-db42-4851-bc56-f517ddfa7f62)" d="M90.61,42.98L2.98,42.98L8.93,26.64L96.56,26.64L90.61,42.98Z" class="rjQvhlBE_3"></path>
    <g>
      <path d="M17.9,32.54a2.87,2.87,0,0,1-1.07,2.4,4.72,4.72,0,0,1-3,.84h-.69l-.73,3.45h-1.5L12.89,30H15a3.24,3.24,0,0,1,2.18.63A2.37,2.37,0,0,1,17.9,32.54Zm-4.47,2H14a2.68,2.68,0,0,0,1.74-.5,1.73,1.73,0,0,0,.62-1.42,1.25,1.25,0,0,0-.37-1,1.71,1.71,0,0,0-1.13-.32h-.75Z" style="fill: #c4c4c3" class="rjQvhlBE_4"></path>
      <path d="M20.93,39.23,22.88,30h1.5l-1.68,7.93h3.4l-.27,1.29Z" style="fill: #c4c4c3" class="rjQvhlBE_5"></path>
      <path d="M34.69,36.67H31.63l-1.32,2.56h-1.6L33.65,30h1.73l1,9.24H35Zm-.1-1.31q-.25-2.62-.29-3.18c0-.37,0-.66,0-.88a21.31,21.31,0,0,1-.9,1.94l-1.08,2.12Z" style="fill: #c4c4c3" class="rjQvhlBE_6"></path>
      <path d="M43,39.23H41.53l1.67-7.93H40.8L41.09,30h6.3l-.27,1.29h-2.4Z" style="fill: #c4c4c3" class="rjQvhlBE_7"></path>
      <path d="M49.36,39.23l2-9.22h1.48l-2,9.22Z" style="fill: #c4c4c3" class="rjQvhlBE_8"></path>
      <path d="M62.86,39.23H61.22L58.63,31.9h0l-.06.44q-.15.94-.22,1.34t-1.16,5.56H55.77L57.72,30h1.69l2.52,7.25h0q0-.34.2-1.21t.25-1.28l1-4.75h1.38Z" style="fill: #c4c4c3" class="rjQvhlBE_9"></path>
      <path d="M76.28,30,75,36a4.34,4.34,0,0,1-1.31,2.5,3.79,3.79,0,0,1-2.54.82A3.07,3.07,0,0,1,69,38.69a2.45,2.45,0,0,1-.75-1.92,4.79,4.79,0,0,1,.13-1.07L69.63,30h1.5l-1.21,5.71a4.36,4.36,0,0,0-.13,1,1.31,1.31,0,0,0,.38,1,1.6,1.6,0,0,0,1.14.36,2,2,0,0,0,1.45-.51,3.14,3.14,0,0,0,.78-1.65L74.79,30Z" style="fill: #c4c4c3" class="rjQvhlBE_10"></path>
      <path d="M82.82,39.23l-.72-7.66h0a18.4,18.4,0,0,1-.35,2.14l-1.16,5.51H79.17L81.12,30h2l.69,7.25h0L87.7,30h2.17l-1.92,9.22H86.52l1.15-5.5q.25-1.17.54-2.16h0l-4.06,7.66Z" style="fill: #c4c4c3" class="rjQvhlBE_11"></path>
    </g>
  </g>
  <g id="0c4dbf30-56bb-427a-b1bd-84ca4f2da612" data-name="Layer 2">
    <g>
      <g>
        <path d="M96.14,4.93l.15-2h.36l.26.72.14.39.11.32,0,.11q.13-.4.29-.82L97.76,3h.36l.18,2H98l-.07-.77-.06-.79-.29.79-.27.73h-.24l-.27-.73-.26-.78q0,.13,0,.78l-.06.77Z" style="fill: #64666a" class="rjQvhlBE_12"></path>
        <path d="M99.72,4.93l-.46-.75H99v.75h-.3V3h.55a.76.76,0,0,1,.52.16.57.57,0,0,1,.18.45.61.61,0,0,1-.11.35.56.56,0,0,1-.28.21l.51.79ZM99,3.21v.72h.27a.38.38,0,0,0,.28-.1.36.36,0,0,0,.1-.26q0-.36-.39-.36Z" style="fill: #64666a" class="rjQvhlBE_13"></path>
      </g>
      <path d="M98,6.93A2.94,2.94,0,1,1,101,4,2.94,2.94,0,0,1,98,6.93Zm0-5.47A2.54,2.54,0,1,0,100.58,4,2.54,2.54,0,0,0,98,1.45Z" style="fill: #64666a" class="rjQvhlBE_14"></path>
    </g>
  </g>
<style data-made-with="vivus-instant">.rjQvhlBE_0{stroke-dasharray:70 72;stroke-dashoffset:71;}.start .rjQvhlBE_0{animation:rjQvhlBE_draw_0 7200ms linear 0ms infinite,rjQvhlBE_fade 7200ms linear 0ms infinite;}.rjQvhlBE_1{stroke-dasharray:142 144;stroke-dashoffset:143;}.start .rjQvhlBE_1{animation:rjQvhlBE_draw_1 7200ms linear 0ms infinite,rjQvhlBE_fade 7200ms linear 0ms infinite;}.rjQvhlBE_2{stroke-dasharray:91 93;stroke-dashoffset:92;}.start .rjQvhlBE_2{animation:rjQvhlBE_draw_2 7200ms linear 0ms infinite,rjQvhlBE_fade 7200ms linear 0ms infinite;}.rjQvhlBE_3{stroke-dasharray:211 213;stroke-dashoffset:212;}.start .rjQvhlBE_3{animation:rjQvhlBE_draw_3 7200ms linear 0ms infinite,rjQvhlBE_fade 7200ms linear 0ms infinite;}.rjQvhlBE_4{stroke-dasharray:38 40;stroke-dashoffset:39;}.start .rjQvhlBE_4{animation:rjQvhlBE_draw_4 7200ms linear 0ms infinite,rjQvhlBE_fade 7200ms linear 0ms infinite;}.rjQvhlBE_5{stroke-dasharray:29 31;stroke-dashoffset:30;}.start .rjQvhlBE_5{animation:rjQvhlBE_draw_5 7200ms linear 0ms infinite,rjQvhlBE_fade 7200ms linear 0ms infinite;}.rjQvhlBE_6{stroke-dasharray:44 46;stroke-dashoffset:45;}.start .rjQvhlBE_6{animation:rjQvhlBE_draw_6 7200ms linear 0ms infinite,rjQvhlBE_fade 7200ms linear 0ms infinite;}.rjQvhlBE_7{stroke-dasharray:32 34;stroke-dashoffset:33;}.start .rjQvhlBE_7{animation:rjQvhlBE_draw_7 7200ms linear 0ms infinite,rjQvhlBE_fade 7200ms linear 0ms infinite;}.rjQvhlBE_8{stroke-dasharray:22 24;stroke-dashoffset:23;}.start .rjQvhlBE_8{animation:rjQvhlBE_draw_8 7200ms linear 0ms infinite,rjQvhlBE_fade 7200ms linear 0ms infinite;}.rjQvhlBE_9{stroke-dasharray:56 58;stroke-dashoffset:57;}.start .rjQvhlBE_9{animation:rjQvhlBE_draw_9 7200ms linear 0ms infinite,rjQvhlBE_fade 7200ms linear 0ms infinite;}.rjQvhlBE_10{stroke-dasharray:45 47;stroke-dashoffset:46;}.start .rjQvhlBE_10{animation:rjQvhlBE_draw_10 7200ms linear 0ms infinite,rjQvhlBE_fade 7200ms linear 0ms infinite;}.rjQvhlBE_11{stroke-dasharray:75 77;stroke-dashoffset:76;}.start .rjQvhlBE_11{animation:rjQvhlBE_draw_11 7200ms linear 0ms infinite,rjQvhlBE_fade 7200ms linear 0ms infinite;}.rjQvhlBE_12{stroke-dasharray:16 18;stroke-dashoffset:17;}.start .rjQvhlBE_12{animation:rjQvhlBE_draw_12 7200ms linear 0ms infinite,rjQvhlBE_fade 7200ms linear 0ms infinite;}.rjQvhlBE_13{stroke-dasharray:11 13;stroke-dashoffset:12;}.start .rjQvhlBE_13{animation:rjQvhlBE_draw_13 7200ms linear 0ms infinite,rjQvhlBE_fade 7200ms linear 0ms infinite;}.rjQvhlBE_14{stroke-dasharray:35 37;stroke-dashoffset:36;}.start .rjQvhlBE_14{animation:rjQvhlBE_draw_14 7200ms linear 0ms infinite,rjQvhlBE_fade 7200ms linear 0ms infinite;}@keyframes rjQvhlBE_draw{100%{stroke-dashoffset:0;}}@keyframes rjQvhlBE_fade{0%{stroke-opacity:1;}94.44444444444444%{stroke-opacity:1;}100%{stroke-opacity:0;}}@keyframes rjQvhlBE_draw_0{11.11111111111111%{stroke-dashoffset: 71}14.285288507391511%{ stroke-dashoffset: 0;}100%{ stroke-dashoffset: 0;}}@keyframes rjQvhlBE_draw_1{14.285288507391511%{stroke-dashoffset: 143}20.678350023843585%{ stroke-dashoffset: 0;}100%{ stroke-dashoffset: 0;}}@keyframes rjQvhlBE_draw_2{20.678350023843585%{stroke-dashoffset: 92}24.79136862184072%{ stroke-dashoffset: 0;}100%{ stroke-dashoffset: 0;}}@keyframes rjQvhlBE_draw_3{24.79136862184072%{stroke-dashoffset: 212}34.26919408679065%{ stroke-dashoffset: 0;}100%{ stroke-dashoffset: 0;}}@keyframes rjQvhlBE_draw_4{34.26919408679065%{stroke-dashoffset: 39}36.0127563185503%{ stroke-dashoffset: 0;}100%{ stroke-dashoffset: 0;}}@keyframes rjQvhlBE_draw_5{36.01275631855031%{stroke-dashoffset: 30}37.35395803528851%{ stroke-dashoffset: 0;}100%{ stroke-dashoffset: 0;}}@keyframes rjQvhlBE_draw_6{37.35395803528851%{stroke-dashoffset: 45}39.3657606103958%{ stroke-dashoffset: 0;}100%{ stroke-dashoffset: 0;}}@keyframes rjQvhlBE_draw_7{39.36576061039581%{stroke-dashoffset: 33}40.84108249880782%{ stroke-dashoffset: 0;}100%{ stroke-dashoffset: 0;}}@keyframes rjQvhlBE_draw_8{40.84108249880782%{stroke-dashoffset: 23}41.86933714830711%{ stroke-dashoffset: 0;}100%{ stroke-dashoffset: 0;}}@keyframes rjQvhlBE_draw_9{41.8693371483071%{stroke-dashoffset: 57}44.41762041010968%{ stroke-dashoffset: 0;}100%{ stroke-dashoffset: 0;}}@keyframes rjQvhlBE_draw_10{44.41762041010968%{stroke-dashoffset: 46}46.47412970910825%{ stroke-dashoffset: 0;}100%{ stroke-dashoffset: 0;}}@keyframes rjQvhlBE_draw_11{46.474129709108254%{stroke-dashoffset: 76}49.87184072484502%{ stroke-dashoffset: 0;}100%{ stroke-dashoffset: 0;}}@keyframes rjQvhlBE_draw_12{49.871840724845015%{stroke-dashoffset: 17}50.631855030996654%{ stroke-dashoffset: 0;}100%{ stroke-dashoffset: 0;}}@keyframes rjQvhlBE_draw_13{50.631855030996654%{stroke-dashoffset: 12}51.16833571769194%{ stroke-dashoffset: 0;}100%{ stroke-dashoffset: 0;}}@keyframes rjQvhlBE_draw_14{51.16833571769194%{stroke-dashoffset: 36}52.77777777777778%{ stroke-dashoffset: 0;}100%{ stroke-dashoffset: 0;}}</style></svg>
