<svg id="a43ea5dc-0a73-47fe-aa87-8116064cda70" data-name="Layer 1" xmlns="http://www.w3.org/2000/svg" xmlns:xlink="http://www.w3.org/1999/xlink" viewBox="0 0 376.81 160.89"><defs><linearGradient id="d137d8c3-ce12-4126-bd21-322aa0b4c10f" x1="-251.5" y1="236.91" x2="-125.81" y2="39.3" gradientTransform="matrix(1, 0, -0.36, 1, 419.09, -8.69)" gradientUnits="userSpaceOnUse"><stop offset="0" stop-color="#666"/><stop offset="0.25" stop-color="#4d4d4d"/><stop offset="0.5" stop-color="#333"/><stop offset="1" stop-color="#121212"/></linearGradient></defs><title>logo-smb5</title><path d="M218.17,79.56q0,9.75-6.9,15.41t-18.7,5.67q-10.31,0-16.6-4.2V83.67q9,5,16.7,5,5.22,0,8.16-2a6.22,6.22,0,0,0,2.94-5.43,9.12,9.12,0,0,0-.63-3.52,10,10,0,0,0-1.79-2.82,48.74,48.74,0,0,0-5.78-4.76q-6.44-4.62-9-9.14a19.16,19.16,0,0,1-2.61-9.75,20.2,20.2,0,0,1,2.89-10.75A19.48,19.48,0,0,1,195,33.18a27.43,27.43,0,0,1,12.29-2.63,37.78,37.78,0,0,1,18.51,4.62L220.73,46a31.63,31.63,0,0,0-13.43-3.45,9.46,9.46,0,0,0-6.34,2.1,6.92,6.92,0,0,0-2.47,5.55,8.23,8.23,0,0,0,1.54,5q1.54,2.12,6.9,5.62A27.62,27.62,0,0,1,215.37,69,19.51,19.51,0,0,1,218.17,79.56Z" transform="translate(-6.87 -8.69)" style="fill:#2062af"/><path d="M263.73,82.5l25.7-51h19.73L294.74,99.71H281.68l6.76-32.27q2.47-11.52,4.9-20.57h-.23L266.57,99.71h-13.1l-2.84-52.84h-.19q-.51,4.1-1.77,10.77t-8.72,42.06H227.12l14.41-68.18h18.84l3.17,51Z" transform="translate(-6.87 -8.69)" style="fill:#2062af"/><path d="M345.43,31.53q10.68,0,16.14,3.8T367,46.68a17.18,17.18,0,0,1-3.87,11.54q-3.87,4.55-11,6v.28a14.05,14.05,0,0,1,7.44,4.5,12.6,12.6,0,0,1,2.78,8.42q0,10.68-7.14,16.46T335.5,99.71H311.16l14.41-68.18ZM327.9,87.77h8.39q5.46,0,8.56-2.71a9.44,9.44,0,0,0,3.1-7.51Q348,70,339.42,70h-7.7Zm6.2-29.24H341q5.64,0,8.46-2.26a7.85,7.85,0,0,0,2.82-6.5q0-6.39-7.93-6.39h-7.09Z" transform="translate(-6.87 -8.69)" style="fill:#2062af"/><polygon points="337.41 160.89 0 160.89 22.91 97.94 360.32 97.94 337.41 160.89" style="fill:url(#d137d8c3-ce12-4126-bd21-322aa0b4c10f)"/><path d="M64.32,129.37q0,6-4.12,9.25t-11.48,3.23H46.06l-2.79,13.29H37.51L45,119.63h8.11q5.56,0,8.38,2.44T64.32,129.37ZM47.1,137h2.28A10.33,10.33,0,0,0,56.08,135a6.67,6.67,0,0,0,2.37-5.48A4.81,4.81,0,0,0,57,125.7a6.59,6.59,0,0,0-4.36-1.21H49.77Z" transform="translate(-6.87 -8.69)" style="fill:#c4c4c3"/><path d="M76,155.14l7.51-35.51h5.76l-6.46,30.53H95.87l-1,5Z" transform="translate(-6.87 -8.69)" style="fill:#c4c4c3"/><path d="M129,145.28H117.21l-5.08,9.86H106l19-35.56h6.66l4,35.56H130Zm-.39-5.05q-1-10.1-1.11-12.23t-.13-3.39a82.05,82.05,0,0,1-3.45,7.46l-4.18,8.16Z" transform="translate(-6.87 -8.69)" style="fill:#c4c4c3"/><path d="M161.07,155.14h-5.76l6.41-30.53h-9.21l1.09-5h24.24l-1,5h-9.25Z" transform="translate(-6.87 -8.69)" style="fill:#c4c4c3"/><path d="M185.47,155.14,193,119.63h5.71l-7.55,35.51Z" transform="translate(-6.87 -8.69)" style="fill:#c4c4c3"/><path d="M237.44,155.14h-6.31l-10-28.25H221l-.24,1.68q-.58,3.62-.86,5.16t-4.46,21.41h-5.32l7.51-35.51h6.51l9.69,27.91H234q.15-1.31.75-4.68t1-4.94l3.89-18.29h5.32Z" transform="translate(-6.87 -8.69)" style="fill:#c4c4c3"/><path d="M289.12,119.63l-4.91,23.22q-1.36,6.49-5.05,9.63t-9.79,3.15q-5.27,0-8.15-2.57t-2.88-7.41a18.39,18.39,0,0,1,.49-4.13l4.69-21.88h5.76l-4.66,22a16.72,16.72,0,0,0-.51,3.84,5.06,5.06,0,0,0,1.44,3.85,6.16,6.16,0,0,0,4.38,1.37,7.79,7.79,0,0,0,5.59-2q2.06-2,3-6.35l4.83-22.74Z" transform="translate(-6.87 -8.69)" style="fill:#c4c4c3"/><path d="M314.3,155.14l-2.79-29.49h-.15a70.49,70.49,0,0,1-1.34,8.26l-4.47,21.23h-5.32l7.51-35.51h7.85l2.65,27.91h.15l14.72-27.91h8.36L334,155.14h-5.51L333,134q.95-4.52,2.09-8.31h-.15l-15.62,29.49Z" transform="translate(-6.87 -8.69)" style="fill:#c4c4c3"/><path d="M365.59,23.05l.58-7.57h1.37l1,2.76q.27.71.54,1.5t.4,1.23l.15.44q.52-1.53,1.13-3.17l1.06-2.76h1.37l.7,7.57h-1.15l-.27-3-.24-3q-.51,1.43-1.1,3l-1.06,2.82h-.91l-1-2.82-1-3q0,.49-.18,3l-.22,3Z" transform="translate(-6.87 -8.69)" style="fill:#64666a"/><path d="M379.37,23.05l-1.77-2.88h-1v2.88h-1.16V15.48h2.11a2.91,2.91,0,0,1,2,.63,2.2,2.2,0,0,1,.71,1.72,2.34,2.34,0,0,1-.41,1.35,2.19,2.19,0,0,1-1.09.8l2,3.06Zm-2.77-6.61v2.76h1a1.47,1.47,0,0,0,1.09-.38,1.37,1.37,0,0,0,.37-1q0-1.38-1.52-1.38Z" transform="translate(-6.87 -8.69)" style="fill:#64666a"/><circle cx="366.07" cy="10.74" r="10.54" style="fill:none;stroke:#64666a;stroke-miterlimit:10;stroke-width:0.400000005960465px"/></svg>